<svg width="40" height="40" viewBox="0 0 40 40" fill="none" xmlns="http://www.w3.org/2000/svg">
<rect width="40" height="40" rx="8" fill="#0C5DC5"/>
<path d="M20 16.333C17.975 16.333 16.3339 17.975 16.3339 20C16.3339 22.025 17.975 23.667 20 23.667C22.025 23.667 23.6669 22.025 23.6669 20C23.6669 17.975 22.025 16.333 20 16.333Z" fill="white"/>
<path fill-rule="evenodd" clip-rule="evenodd" d="M13.4499 10.525C14.0852 10.2778 14.8126 10.109 15.8772 10.0606C16.944 10.0113 17.2851 10 20.0008 10C22.7165 10 23.0574 10.0121 24.1236 10.0606C25.1874 10.1082 25.9144 10.2778 26.5509 10.525C27.2076 10.7803 27.7658 11.1219 28.3215 11.6785C28.8772 12.235 29.219 12.7924 29.475 13.4499C29.7222 14.0852 29.891 14.8126 29.9394 15.8772C29.9879 16.9434 29.9992 17.2843 29.9992 20C29.9992 22.7157 29.9879 23.0558 29.9394 24.1228C29.8918 25.1874 29.7222 25.9144 29.475 26.5501C29.219 27.2076 28.8781 27.7658 28.3215 28.3215C27.765 28.8772 27.2076 29.219 26.5501 29.475C25.9144 29.7222 25.1874 29.891 24.1228 29.9394C23.0566 29.9887 22.7157 30 20 30C17.2843 30 16.944 29.9879 15.8772 29.9394C14.8126 29.891 14.0864 29.7222 13.4499 29.475C12.792 29.219 12.235 28.877 11.6785 28.3215C11.122 27.7661 10.7803 27.2076 10.525 26.5501C10.2778 25.9144 10.109 25.1874 10.0606 24.1228C10.0113 23.0566 10 22.7157 10 20C10 17.2843 10.0113 16.9434 10.0606 15.8772C10.109 14.8126 10.2778 14.0856 10.525 13.4499C10.7803 12.792 11.1219 12.2342 11.6785 11.6785C12.235 11.1228 12.792 10.7803 13.4499 10.525ZM20 25.6484C16.8804 25.6484 14.3516 23.1196 14.3516 20C14.3516 16.8804 16.8804 14.3516 20 14.3516C23.1196 14.3516 25.6484 16.8804 25.6484 20C25.6484 23.1196 23.1196 25.6484 20 25.6484ZM24.7741 14.8611C24.6292 14.644 24.5519 14.3887 24.552 14.1277C24.5523 13.7777 24.6915 13.4422 24.9389 13.1948C25.1864 12.9474 25.5225 12.8084 25.8725 12.8082C26.1336 12.8083 26.3887 12.8858 26.6058 13.031C26.8228 13.1761 26.9919 13.3823 27.0917 13.6235C27.1915 13.8648 27.2175 14.1302 27.1665 14.3862C27.1155 14.6423 26.9897 14.8774 26.805 15.062C26.6203 15.2465 26.385 15.3721 26.129 15.4229C25.8729 15.4738 25.6075 15.4475 25.3663 15.3475C25.1252 15.2475 24.9191 15.0782 24.7741 14.8611Z" fill="white"/>
</svg>
