<svg width="196" height="53" viewBox="0 0 196 53" fill="none" xmlns="http://www.w3.org/2000/svg">
<path d="M96.2952 27.1557L98 26.5356L96.2952 26L0 0V53L96.2952 27.1557Z" fill="#0C5DC5"/>
<path d="M132.228 22.7302C131.658 21.9791 130.918 21.3745 130.069 20.9662C129.22 20.5579 128.286 20.3577 127.344 20.3821C123.649 20.3821 120.246 23.252 120.246 28.5352C120.246 33.8184 123.714 36.6884 127.344 36.6884C128.306 36.7121 129.259 36.4912 130.113 36.0464C130.967 35.6016 131.695 34.9473 132.228 34.1446V36.3948H136.64V15.001H132.228V22.7302ZM128.5 32.8727C127.963 32.8505 127.437 32.7196 126.953 32.4878C126.468 32.2561 126.035 31.9284 125.681 31.5245C125.326 31.1206 125.057 30.649 124.89 30.138C124.722 29.627 124.66 29.0873 124.707 28.5515C124.636 28.0108 124.681 27.4612 124.839 26.9393C124.997 26.4175 125.265 25.9355 125.624 25.5255C125.983 25.1156 126.425 24.7871 126.921 24.5621C127.417 24.3371 127.955 24.2207 128.5 24.2207C129.044 24.2207 129.583 24.3371 130.079 24.5621C130.575 24.7871 131.017 25.1156 131.376 25.5255C131.735 25.9355 132.003 26.4175 132.161 26.9393C132.319 27.4612 132.364 28.0108 132.293 28.5515C132.337 29.0868 132.274 29.6256 132.105 30.1356C131.937 30.6456 131.668 31.1164 131.314 31.5197C130.96 31.9231 130.528 32.2509 130.044 32.4833C129.561 32.7158 129.036 32.8482 128.5 32.8727V32.8727Z" fill="#0C5DC5"/>
<path d="M195.474 15.001H191.062V36.3622H195.474V15.001Z" fill="#0C5DC5"/>
<path d="M172.376 20.6756H167.085L161.908 26.3828V15.001H157.496V36.3622H161.908V31.5845L163.455 29.9539L167.524 36.3622H172.571L166.45 26.8557L172.376 20.6756Z" fill="#0C5DC5"/>
<path d="M180.465 20.3811C178.868 20.4324 177.32 20.9537 176.016 21.8802C174.712 22.8067 173.71 24.0972 173.133 25.5907C172.557 27.0843 172.432 28.7148 172.775 30.2788C173.118 31.8428 173.913 33.271 175.061 34.3853C176.209 35.4996 177.66 36.2506 179.231 36.5446C180.803 36.8386 182.426 36.6627 183.898 36.0386C185.37 35.4146 186.627 34.3702 187.51 33.0356C188.393 31.7011 188.865 30.1355 188.866 28.5343C188.866 27.4413 188.647 26.3593 188.222 25.3527C187.797 24.3462 187.174 23.4355 186.39 22.6749C185.607 21.9143 184.678 21.3193 183.66 20.9252C182.643 20.5312 181.556 20.3462 180.465 20.3811V20.3811ZM180.465 32.8718C179.911 32.8657 179.364 32.7481 178.856 32.5259C178.348 32.3037 177.889 31.9815 177.508 31.5784C177.127 31.1753 176.831 30.6995 176.637 30.1793C176.443 29.6592 176.355 29.1053 176.379 28.5506C176.337 28.0003 176.408 27.4471 176.588 26.9255C176.768 26.4038 177.053 25.9247 177.425 25.518C177.798 25.1113 178.25 24.7856 178.753 24.5611C179.256 24.3366 179.8 24.2182 180.351 24.2131C180.908 24.2191 181.457 24.3372 181.967 24.5602C182.477 24.7832 182.937 25.1066 183.32 25.5113C183.703 25.9159 184 26.3935 184.195 26.9156C184.39 27.4377 184.478 27.9937 184.454 28.5506C184.494 29.1009 184.421 29.6537 184.239 30.1745C184.057 30.6953 183.77 31.1732 183.396 31.5784C183.022 31.9835 182.569 32.3074 182.065 32.5299C181.561 32.7524 181.016 32.8688 180.465 32.8718V32.8718Z" fill="#0C5DC5"/>
<path d="M147.094 20.3811C145.496 20.4324 143.949 20.9537 142.645 21.8802C141.341 22.8067 140.339 24.0972 139.762 25.5907C139.186 27.0843 139.061 28.7148 139.404 30.2788C139.747 31.8428 140.542 33.271 141.69 34.3853C142.838 35.4996 144.289 36.2506 145.86 36.5446C147.432 36.8386 149.055 36.6627 150.527 36.0386C151.999 35.4146 153.255 34.3702 154.139 33.0356C155.022 31.7011 155.494 30.1355 155.495 28.5343C155.495 27.4413 155.276 26.3593 154.851 25.3527C154.426 24.3462 153.803 23.4355 153.019 22.6749C152.236 21.9143 151.307 21.3193 150.289 20.9252C149.272 20.5312 148.185 20.3462 147.094 20.3811V20.3811ZM147.094 32.8718C146.54 32.8657 145.993 32.7481 145.485 32.5259C144.977 32.3037 144.518 31.9815 144.137 31.5784C143.756 31.1753 143.459 30.6995 143.266 30.1793C143.072 29.6592 142.984 29.1053 143.008 28.5506C142.963 27.9943 143.034 27.4346 143.217 26.9074C143.4 26.3802 143.69 25.897 144.07 25.4888C144.45 25.0805 144.911 24.7562 145.424 24.5365C145.936 24.3169 146.488 24.2067 147.045 24.2131C147.602 24.2191 148.151 24.3372 148.661 24.5602C149.171 24.7832 149.631 25.1066 150.014 25.5113C150.397 25.9159 150.694 26.3935 150.889 26.9156C151.084 27.4377 151.172 27.9937 151.148 28.5506C151.189 29.1064 151.114 29.6646 150.928 30.1899C150.742 30.7152 150.449 31.1962 150.068 31.6023C149.687 32.0085 149.226 32.331 148.714 32.5495C148.202 32.768 147.651 32.8777 147.094 32.8718V32.8718Z" fill="#0C5DC5"/>
<path d="M118.113 33.7859L115.59 31.5356C115.105 32.0566 114.518 32.4707 113.865 32.7515C113.212 33.0323 112.507 33.1735 111.797 33.1663C110.893 33.2248 110.001 32.94 109.298 32.3688C108.595 31.7976 108.133 30.9819 108.003 30.0844H118.846C118.846 29.6767 118.846 29.2691 118.846 28.9103C118.846 24.4587 116.469 20.3984 111.259 20.3984C110.214 20.4083 109.18 20.6292 108.222 21.048C107.263 21.4669 106.398 22.075 105.679 22.836C104.961 23.5971 104.402 24.4955 104.038 25.4775C103.674 26.4595 103.511 27.5051 103.559 28.5516C103.527 30.2554 104.028 31.9265 104.993 33.33C105.958 34.7336 107.338 35.799 108.939 36.3766C110.539 36.9542 112.28 37.0149 113.917 36.5502C115.554 36.0856 117.004 35.1188 118.064 33.7859H118.113ZM111.308 24.0021C112.178 24.0275 113.004 24.3903 113.611 25.0141C114.219 25.6378 114.56 26.4736 114.564 27.3449H107.938C107.963 26.4559 108.325 25.6098 108.951 24.9794C109.578 24.349 110.421 23.982 111.308 23.9532V24.0021Z" fill="#0C5DC5"/>
<path d="M97 36.3612H101.412V15H97V28.045V28.7951V36.3612Z" fill="#0C5DC5"/>
</svg>
