<svg width="40" height="40" viewBox="0 0 40 40" fill="none" xmlns="http://www.w3.org/2000/svg">
<rect width="40" height="40" rx="8" fill="#0C5DC5"/>
<path fill-rule="evenodd" clip-rule="evenodd" d="M30.1778 15.023C30.3262 14.5286 30.1779 14.1652 29.472 14.1652H27.1381C26.5447 14.1652 26.2713 14.4791 26.1229 14.8253C26.1229 14.8253 24.936 17.7182 23.2546 19.5973C22.7106 20.1412 22.4634 20.3141 22.1666 20.3141C22.0183 20.3141 21.8036 20.1412 21.8036 19.6468V15.023C21.8036 14.4296 21.6314 14.1652 21.1367 14.1652H17.4692C17.0985 14.1652 16.8754 14.4406 16.8754 14.7016C16.8754 15.2643 17.7159 15.3939 17.8026 16.9763V20.4133C17.8026 21.1668 17.6666 21.3035 17.3699 21.3035C16.5787 21.3035 14.6542 18.3975 13.5126 15.0725C13.2889 14.4262 13.0645 14.1652 12.468 14.1652H10.1342C9.46735 14.1652 9.33398 14.4791 9.33398 14.8253C9.33398 15.4435 10.1253 18.5095 13.0182 22.5645C14.947 25.3334 17.6639 26.8348 20.1365 26.8348C21.6202 26.8348 21.8036 26.5014 21.8036 25.9271V23.8341C21.8036 23.1673 21.9441 23.0342 22.4137 23.0342C22.7601 23.0342 23.3534 23.2073 24.7382 24.5424C26.3206 26.1246 26.5813 26.8348 27.4716 26.8348H29.8054C30.4723 26.8348 30.8057 26.5014 30.6133 25.8434C30.4029 25.1876 29.6474 24.2363 28.6448 23.1084C28.1009 22.4654 27.2848 21.7731 27.0378 21.427C26.6915 20.9819 26.7904 20.7842 27.0378 20.3888C27.0378 20.3888 29.8811 16.383 30.1778 15.023Z" fill="white"/>
</svg>
