<svg width="136" height="136" viewBox="0 0 136 136" fill="none" xmlns="http://www.w3.org/2000/svg">
<path d="M114.75 106.25H89.25C85.8685 106.25 82.6255 107.593 80.2344 109.984C77.8433 112.375 76.5 115.618 76.5 119V127.5H85V119C85 117.873 85.4478 116.792 86.2448 115.995C87.0418 115.198 88.1228 114.75 89.25 114.75H114.75C115.877 114.75 116.958 115.198 117.755 115.995C118.552 116.792 119 117.873 119 119V127.5H127.5V119C127.5 115.618 126.157 112.375 123.766 109.984C121.375 107.593 118.132 106.25 114.75 106.25ZM85 85C85 88.3623 85.997 91.6491 87.865 94.4447C89.733 97.2403 92.388 99.4193 95.4944 100.706C98.6007 101.993 102.019 102.329 105.317 101.673C108.614 101.017 111.643 99.3983 114.021 97.0208C116.398 94.6433 118.017 91.6142 118.673 88.3165C119.329 85.0189 118.993 81.6007 117.706 78.4944C116.419 75.388 114.24 72.733 111.445 70.865C108.649 68.997 105.362 68 102 68C97.4913 68 93.1673 69.7911 89.9792 72.9792C86.7911 76.1673 85 80.4913 85 85ZM110.5 85C110.5 86.6812 110.001 88.3245 109.067 89.7224C108.133 91.1202 106.806 92.2096 105.253 92.853C103.7 93.4963 101.991 93.6647 100.342 93.3367C98.6929 93.0087 97.1783 92.1992 95.9896 91.0104C94.8008 89.8217 93.9913 88.3071 93.6633 86.6583C93.3354 85.0094 93.5037 83.3004 94.147 81.7472C94.7904 80.194 95.8798 78.8665 97.2776 77.9325C98.6755 76.9985 100.319 76.5 102 76.5C104.254 76.5 106.416 77.3955 108.01 78.9896C109.604 80.5837 110.5 82.7457 110.5 85ZM25.5 89.25V85H17V89.25C17 97.1402 20.1344 104.707 25.7136 110.286C31.2928 115.866 38.8598 119 46.75 119H59.5V110.5H46.75C41.1142 110.5 35.7091 108.261 31.724 104.276C27.7388 100.291 25.5 94.8859 25.5 89.25ZM80.75 42.5H110.5V51H80.75V42.5ZM80.75 25.5H123.25V34H80.75V25.5ZM80.75 8.50001H123.25V17H80.75V8.50001ZM46.75 46.75H21.25C17.8685 46.75 14.6255 48.0933 12.2344 50.4844C9.8433 52.8755 8.5 56.1185 8.5 59.5V68H17V59.5C17 58.3728 17.4478 57.2918 18.2448 56.4948C19.0418 55.6978 20.1228 55.25 21.25 55.25H46.75C47.8772 55.25 48.9582 55.6978 49.7552 56.4948C50.5522 57.2918 51 58.3728 51 59.5V68H59.5V59.5C59.5 56.1185 58.1567 52.8755 55.7656 50.4844C53.3745 48.0933 50.1315 46.75 46.75 46.75ZM34 42.5C37.3623 42.5 40.6491 41.503 43.4447 39.635C46.2403 37.767 48.4193 35.112 49.706 32.0056C50.9926 28.8993 51.3293 25.4811 50.6734 22.1835C50.0174 18.8858 48.3983 15.8567 46.0208 13.4792C43.6433 11.1017 40.6142 9.48261 37.3165 8.82666C34.0189 8.17071 30.6007 8.50737 27.4944 9.79406C24.388 11.0807 21.733 13.2597 19.865 16.0553C17.997 18.8509 17 22.1377 17 25.5C17 30.0087 18.7911 34.3327 21.9792 37.5208C25.1673 40.7089 29.4913 42.5 34 42.5ZM34 17C35.6811 17 37.3245 17.4985 38.7223 18.4325C40.1202 19.3665 41.2096 20.694 41.853 22.2472C42.4963 23.8004 42.6646 25.5094 42.3367 27.1583C42.0087 28.8071 41.1992 30.3217 40.0104 31.5104C38.8217 32.6992 37.3071 33.5087 35.6583 33.8367C34.0094 34.1647 32.3004 33.9963 30.7472 33.353C29.194 32.7096 27.8665 31.6202 26.9325 30.2224C25.9985 28.8245 25.5 27.1811 25.5 25.5C25.5 23.2457 26.3955 21.0837 27.9896 19.4896C29.5837 17.8955 31.7457 17 34 17Z" fill="#0C5DC5"/>
</svg>
