<svg width="300" height="190" viewBox="0 0 300 190" fill="none" xmlns="http://www.w3.org/2000/svg">
<rect x="0.5" y="0.5" width="299" height="189" rx="29.5" fill="#0C5DC5" stroke="white"/>
<path d="M52.9678 38.1802C52.9391 37.0206 52.8084 35.8657 52.5774 34.729H36.8672V41.3035H45.6827C45.531 42.3259 45.1706 43.3062 44.6239 44.1834C44.0772 45.0605 43.3558 45.8158 42.5047 46.4023V50.6422H47.9705C51.1485 47.7063 52.9756 43.3649 52.9756 38.2349L52.9678 38.1802Z" fill="white"/>
<path d="M36.8199 54.6937C40.918 54.8061 44.9041 53.348 47.9623 50.6178L42.4965 46.3779C41.1953 47.2106 39.7213 47.7352 38.1866 47.9119C36.652 48.0886 35.0972 47.9128 33.6409 47.3977C32.1845 46.8826 30.8649 46.0419 29.7825 44.9397C28.7002 43.8374 27.8838 42.5027 27.3954 41.0371H21.7969V45.4019C23.1915 48.1927 25.3356 50.5401 27.9889 52.1812C30.6423 53.8223 33.7001 54.6923 36.8199 54.6937Z" fill="white"/>
<path d="M27.4026 41.0386C26.705 38.956 26.705 36.7028 27.4026 34.6202V30.2554H21.7963C20.6151 32.6054 20 35.1992 20 37.8294C20 40.4596 20.6151 43.0533 21.7963 45.4034L27.4026 41.0386Z" fill="white"/>
<path d="M36.8199 27.6698C39.2102 27.6334 41.5187 28.5394 43.2461 30.1918L48.0716 25.3585C45.0258 22.5055 40.9929 20.9438 36.8199 21.0015C33.7001 21.003 30.6423 21.873 27.9889 23.5141C25.3356 25.1552 23.1915 27.5026 21.7969 30.2934L27.4032 34.6582C28.0484 32.6602 29.3041 30.915 30.9934 29.6683C32.6827 28.4216 34.7206 27.7363 36.8199 27.7088V27.6698Z" fill="white"/>
<path d="M97.4365 40.5439C97.4365 35.0915 98.9746 30.7214 102.051 27.4336C105.143 24.1458 109.334 22.502 114.624 22.502C118.726 22.502 122.07 23.4541 124.658 25.3584C127.262 27.2464 129.02 29.9808 129.932 33.5615L125.244 34.6113C124.609 32.0234 123.397 30.0378 121.606 28.6543C119.816 27.2546 117.489 26.5547 114.624 26.5547C110.75 26.5547 107.747 27.7917 105.615 30.2656C103.499 32.7396 102.441 36.1657 102.441 40.5439C102.441 44.8896 103.491 48.3076 105.591 50.7979C107.707 53.2718 110.653 54.5088 114.429 54.5088C117.928 54.5088 120.671 53.5973 122.656 51.7744C124.642 49.9515 125.749 47.4287 125.977 44.2061H114.331V40.3975H130.396V58H127.026L126.636 51.5547C125.448 53.7845 123.779 55.5016 121.631 56.7061C119.482 57.8942 116.935 58.4883 113.989 58.4883C110.636 58.4883 107.707 57.7477 105.2 56.2666C102.694 54.7692 100.773 52.6696 99.4385 49.9678C98.1038 47.266 97.4365 44.1247 97.4365 40.5439ZM150.244 58.4883C146.077 58.4883 142.822 57.2106 140.479 54.6553C138.151 52.0999 136.987 48.682 136.987 44.4014C136.987 40.137 138.159 36.7191 140.503 34.1475C142.847 31.5758 146.094 30.29 150.244 30.29C154.427 30.29 157.682 31.5758 160.01 34.1475C162.354 36.7028 163.525 40.1208 163.525 44.4014C163.525 48.6982 162.354 52.1243 160.01 54.6797C157.682 57.2188 154.427 58.4883 150.244 58.4883ZM150.244 54.7041C153.06 54.7041 155.184 53.7926 156.616 51.9697C158.065 50.1305 158.789 47.6077 158.789 44.4014C158.789 41.1624 158.065 38.6396 156.616 36.833C155.184 35.0101 153.06 34.0986 150.244 34.0986C147.461 34.0986 145.345 35.0182 143.896 36.8574C142.448 38.6803 141.724 41.195 141.724 44.4014C141.724 47.5915 142.448 50.1061 143.896 51.9453C145.361 53.7845 147.477 54.7041 150.244 54.7041ZM182.715 58.4883C178.548 58.4883 175.293 57.2106 172.949 54.6553C170.622 52.0999 169.458 48.682 169.458 44.4014C169.458 40.137 170.63 36.7191 172.974 34.1475C175.317 31.5758 178.564 30.29 182.715 30.29C186.898 30.29 190.153 31.5758 192.48 34.1475C194.824 36.7028 195.996 40.1208 195.996 44.4014C195.996 48.6982 194.824 52.1243 192.48 54.6797C190.153 57.2188 186.898 58.4883 182.715 58.4883ZM182.715 54.7041C185.531 54.7041 187.655 53.7926 189.087 51.9697C190.535 50.1305 191.26 47.6077 191.26 44.4014C191.26 41.1624 190.535 38.6396 189.087 36.833C187.655 35.0101 185.531 34.0986 182.715 34.0986C179.932 34.0986 177.816 35.0182 176.367 36.8574C174.919 38.6803 174.194 41.195 174.194 44.4014C174.194 47.5915 174.919 50.1061 176.367 51.9453C177.832 53.7845 179.948 54.7041 182.715 54.7041ZM205.566 32.6582C207.682 31.0794 210.417 30.29 213.77 30.29C217.122 30.29 219.84 31.112 221.924 32.7559C223.405 30.5749 225.553 29.5576 228.369 29.7041L228.174 33.708C227.148 33.5941 226.27 33.5941 225.537 33.708C224.821 33.8219 224.186 34.0824 223.633 34.4893C224.528 35.7913 224.976 37.3132 224.976 39.0547C224.976 41.6914 223.934 43.7666 221.851 45.2803C219.784 46.7939 217.09 47.5508 213.77 47.5508C212.142 47.5508 210.514 47.3311 208.887 46.8916C207.275 47.2985 206.47 48.2018 206.47 49.6016C206.47 50.4316 206.755 51.0745 207.324 51.5303C207.894 51.9697 208.708 52.2057 209.766 52.2383L219.531 52.5557C222.347 52.6208 224.495 53.2393 225.977 54.4111C227.474 55.5667 228.223 57.2106 228.223 59.3428C228.223 62.2887 226.904 64.5511 224.268 66.1299C221.631 67.7087 218.05 68.498 213.525 68.498C209.375 68.498 206.136 67.8633 203.809 66.5938C201.481 65.3405 200.317 63.4606 200.317 60.9541C200.317 57.8942 202.1 55.9574 205.664 55.1436C204.606 54.7855 203.784 54.2077 203.198 53.4102C202.612 52.6126 202.319 51.6768 202.319 50.6025C202.319 48.2425 203.589 46.5905 206.128 45.6465C203.654 44.1003 202.417 41.903 202.417 39.0547C202.417 36.3691 203.467 34.237 205.566 32.6582ZM220.435 39.0547C220.435 37.3783 219.808 36.0518 218.555 35.0752C217.318 34.0986 215.723 33.6104 213.77 33.6104C211.784 33.6104 210.156 34.0986 208.887 35.0752C207.617 36.0518 206.982 37.3783 206.982 39.0547C206.982 40.6823 207.617 41.96 208.887 42.8877C210.156 43.7992 211.784 44.2549 213.77 44.2549C215.739 44.2549 217.342 43.7992 218.579 42.8877C219.816 41.9762 220.435 40.6986 220.435 39.0547ZM204.883 60.2949C204.883 61.89 205.656 63.07 207.202 63.835C208.765 64.6162 210.954 65.0068 213.77 65.0068C216.862 65.0068 219.295 64.5592 221.069 63.6641C222.843 62.7852 223.73 61.5156 223.73 59.8555C223.73 57.6094 222.078 56.4375 218.774 56.3398L210.132 56.1445C208.472 56.1934 207.178 56.5921 206.25 57.3408C205.339 58.0732 204.883 59.0579 204.883 60.2949ZM238.354 58H233.765V20.5H238.354V58ZM259.717 58.4883C255.452 58.4883 252.124 57.2025 249.731 54.6309C247.355 52.043 246.167 48.6169 246.167 44.3525C246.167 41.6182 246.68 39.2012 247.705 37.1016C248.73 34.9857 250.26 33.3255 252.295 32.1211C254.329 30.9004 256.738 30.29 259.521 30.29C263.411 30.29 266.512 31.5352 268.823 34.0254C271.151 36.4993 272.314 39.722 272.314 43.6934C272.314 44.2142 272.249 44.8815 272.119 45.6953H250.708C250.903 48.5273 251.758 50.7653 253.271 52.4092C254.785 54.0368 256.934 54.8506 259.717 54.8506C264.095 54.8506 266.829 53.0033 267.92 49.3086L272.168 50.041C271.436 52.7591 270.028 54.8506 267.944 56.3154C265.877 57.764 263.135 58.4883 259.717 58.4883ZM259.57 33.9521C257.031 33.9521 255.021 34.6764 253.54 36.125C252.059 37.5573 251.147 39.5348 250.806 42.0576H267.871C267.692 39.6162 266.87 37.6549 265.405 36.1738C263.94 34.6927 261.995 33.9521 259.57 33.9521ZM91.04 108V72.9902H105.005C108.716 72.9902 111.678 74.0645 113.892 76.2129C116.121 78.3451 117.236 81.1934 117.236 84.7578C117.236 88.2734 116.097 91.0811 113.818 93.1807C111.54 95.264 108.512 96.3057 104.736 96.3057H95.9473V108H91.04ZM104.053 77.043H95.9473V92.2529H104.053C106.624 92.2529 108.643 91.5938 110.107 90.2754C111.572 88.957 112.305 87.1178 112.305 84.7578C112.305 82.3164 111.572 80.4202 110.107 79.0693C108.643 77.7184 106.624 77.043 104.053 77.043ZM121.997 88.957C122.469 86.125 123.714 83.9766 125.732 82.5117C127.751 81.0306 130.371 80.29 133.594 80.29C140.885 80.29 144.531 83.708 144.531 90.5439V102.653C144.531 103.451 144.694 104.029 145.02 104.387C145.345 104.729 145.833 104.899 146.484 104.899C146.582 104.899 146.729 104.891 146.924 104.875C147.119 104.859 147.241 104.851 147.29 104.851L147.144 108.049C146.574 108.244 145.923 108.342 145.19 108.342C141.951 108.342 140.332 106.747 140.332 103.557V103.19C139.307 104.867 137.923 106.169 136.182 107.097C134.44 108.024 132.479 108.488 130.298 108.488C127.45 108.488 125.195 107.788 123.535 106.389C121.875 104.989 121.045 103.076 121.045 100.651C121.045 95.7197 124.325 92.9528 130.884 92.3506L140.283 91.4473V90.8613C140.283 88.4525 139.697 86.7028 138.525 85.6123C137.37 84.5055 135.693 83.9521 133.496 83.9521C131.413 83.9521 129.728 84.4242 128.442 85.3682C127.173 86.3122 126.457 87.7038 126.294 89.543L121.997 88.957ZM125.391 100.407C125.391 101.84 125.863 102.938 126.807 103.703C127.751 104.468 129.11 104.851 130.884 104.851C133.537 104.851 135.775 104.053 137.598 102.458C139.421 100.847 140.332 98.861 140.332 96.501V94.8408L131.641 95.6953C127.474 96.0859 125.391 97.6566 125.391 100.407ZM153.491 108V80.8027H157.52L157.935 86.9062C158.993 84.888 160.4 83.2848 162.158 82.0967C163.916 80.8923 165.788 80.29 167.773 80.29C168.083 80.29 168.27 80.3063 168.335 80.3389L168.188 85.3926C167.896 85.2949 167.456 85.2461 166.87 85.2461C164.25 85.2461 162.126 86.1657 160.498 88.0049C158.887 89.8441 158.081 92.375 158.081 95.5977V108H153.491ZM175.464 100.31V84.4404H171.021V80.8027H173.706C174.162 80.8027 174.504 80.7946 174.731 80.7783C174.976 80.7458 175.212 80.6481 175.439 80.4854C175.684 80.3063 175.846 80.1029 175.928 79.875C176.025 79.6309 176.123 79.2158 176.221 78.6299C176.318 78.0439 176.383 77.4092 176.416 76.7256C176.449 76.042 176.481 75.098 176.514 73.8936H180.127V80.8027H187.671V84.4404H180.127V99.5039C180.127 101.311 180.469 102.637 181.152 103.483C181.836 104.33 183.089 104.753 184.912 104.753C185.791 104.753 186.841 104.639 188.062 104.411L187.915 108C186.369 108.326 184.92 108.488 183.569 108.488C180.835 108.488 178.8 107.829 177.466 106.511C176.131 105.192 175.464 103.125 175.464 100.31ZM194.116 108V80.8027H198.145L198.511 85.8076C199.52 84.0661 200.879 82.7152 202.588 81.7549C204.297 80.7783 206.201 80.29 208.301 80.29C211.279 80.29 213.647 81.2178 215.405 83.0732C217.179 84.9124 218.066 87.3376 218.066 90.3486V108H213.452V91.3496C213.452 89.2663 212.866 87.5817 211.694 86.2959C210.539 84.9938 208.927 84.3428 206.86 84.3428C204.5 84.3428 202.547 85.1403 201.001 86.7354C199.471 88.3304 198.706 90.4219 198.706 93.0098V108H194.116ZM239.014 108.488C234.749 108.488 231.421 107.202 229.028 104.631C226.652 102.043 225.464 98.6169 225.464 94.3525C225.464 91.6182 225.977 89.2012 227.002 87.1016C228.027 84.9857 229.557 83.3255 231.592 82.1211C233.626 80.9004 236.035 80.29 238.818 80.29C242.708 80.29 245.809 81.5352 248.12 84.0254C250.448 86.4993 251.611 89.722 251.611 93.6934C251.611 94.2142 251.546 94.8815 251.416 95.6953H230.005C230.2 98.5273 231.055 100.765 232.568 102.409C234.082 104.037 236.23 104.851 239.014 104.851C243.392 104.851 246.126 103.003 247.217 99.3086L251.465 100.041C250.732 102.759 249.325 104.851 247.241 106.315C245.174 107.764 242.432 108.488 239.014 108.488ZM238.867 83.9521C236.328 83.9521 234.318 84.6764 232.837 86.125C231.356 87.5573 230.444 89.5348 230.103 92.0576H247.168C246.989 89.6162 246.167 87.6549 244.702 86.1738C243.237 84.6927 241.292 83.9521 238.867 83.9521ZM259.106 108V80.8027H263.135L263.55 86.9062C264.608 84.888 266.016 83.2848 267.773 82.0967C269.531 80.8923 271.403 80.29 273.389 80.29C273.698 80.29 273.885 80.3063 273.95 80.3389L273.804 85.3926C273.511 85.2949 273.071 85.2461 272.485 85.2461C269.865 85.2461 267.741 86.1657 266.113 88.0049C264.502 89.8441 263.696 92.375 263.696 95.5977V108H259.106Z" fill="white"/>
<path d="M141.592 158V143.996H147.178C148.662 143.996 149.847 144.426 150.732 145.285C151.624 146.138 152.07 147.277 152.07 148.703C152.07 150.109 151.615 151.232 150.703 152.072C149.792 152.906 148.581 153.322 147.07 153.322H143.555V158H141.592ZM146.797 145.617H143.555V151.701H146.797C147.826 151.701 148.633 151.438 149.219 150.91C149.805 150.383 150.098 149.647 150.098 148.703C150.098 147.727 149.805 146.968 149.219 146.428C148.633 145.887 147.826 145.617 146.797 145.617ZM154.814 158V147.121H156.426L156.592 149.562C157.015 148.755 157.578 148.114 158.281 147.639C158.984 147.157 159.733 146.916 160.527 146.916C160.651 146.916 160.726 146.923 160.752 146.936L160.693 148.957C160.576 148.918 160.4 148.898 160.166 148.898C159.118 148.898 158.268 149.266 157.617 150.002C156.973 150.738 156.65 151.75 156.65 153.039V158H154.814ZM167.578 158.195C165.872 158.195 164.541 157.681 163.584 156.652C162.633 155.617 162.158 154.247 162.158 152.541C162.158 151.447 162.363 150.48 162.773 149.641C163.184 148.794 163.796 148.13 164.609 147.648C165.423 147.16 166.387 146.916 167.5 146.916C169.056 146.916 170.296 147.414 171.221 148.41C172.152 149.4 172.617 150.689 172.617 152.277C172.617 152.486 172.591 152.753 172.539 153.078H163.975C164.053 154.211 164.395 155.106 165 155.764C165.605 156.415 166.465 156.74 167.578 156.74C169.329 156.74 170.423 156.001 170.859 154.523L172.559 154.816C172.266 155.904 171.702 156.74 170.869 157.326C170.042 157.906 168.945 158.195 167.578 158.195ZM167.52 148.381C166.504 148.381 165.7 148.671 165.107 149.25C164.515 149.823 164.15 150.614 164.014 151.623H170.84C170.768 150.646 170.439 149.862 169.854 149.27C169.268 148.677 168.49 148.381 167.52 148.381ZM175.615 158V147.121H177.227L177.373 149.035C177.764 148.365 178.265 147.844 178.877 147.473C179.495 147.102 180.192 146.916 180.967 146.916C181.794 146.916 182.507 147.121 183.105 147.531C183.704 147.941 184.134 148.505 184.395 149.221C184.772 148.505 185.29 147.941 185.947 147.531C186.605 147.121 187.347 146.916 188.174 146.916C189.313 146.916 190.215 147.287 190.879 148.029C191.543 148.765 191.875 149.742 191.875 150.959V158H190.01V151.32C190.01 150.487 189.798 149.816 189.375 149.309C188.958 148.794 188.369 148.537 187.607 148.537C186.722 148.537 186.009 148.856 185.469 149.494C184.935 150.126 184.668 150.962 184.668 152.004V158H182.812V151.32C182.812 150.487 182.601 149.816 182.178 149.309C181.755 148.794 181.159 148.537 180.391 148.537C179.512 148.537 178.802 148.856 178.262 149.494C177.721 150.126 177.451 150.962 177.451 152.004V158H175.615ZM195.469 145.441V143.439H197.471V145.441H195.469ZM195.557 158V147.121H197.393V158H195.557ZM205.938 158.195C204.232 158.195 202.9 157.681 201.943 156.652C200.993 155.617 200.518 154.247 200.518 152.541C200.518 151.447 200.723 150.48 201.133 149.641C201.543 148.794 202.155 148.13 202.969 147.648C203.783 147.16 204.746 146.916 205.859 146.916C207.415 146.916 208.656 147.414 209.58 148.41C210.511 149.4 210.977 150.689 210.977 152.277C210.977 152.486 210.951 152.753 210.898 153.078H202.334C202.412 154.211 202.754 155.106 203.359 155.764C203.965 156.415 204.824 156.74 205.938 156.74C207.689 156.74 208.783 156.001 209.219 154.523L210.918 154.816C210.625 155.904 210.062 156.74 209.229 157.326C208.402 157.906 207.305 158.195 205.938 158.195ZM205.879 148.381C204.863 148.381 204.059 148.671 203.467 149.25C202.874 149.823 202.51 150.614 202.373 151.623H209.199C209.128 150.646 208.799 149.862 208.213 149.27C207.627 148.677 206.849 148.381 205.879 148.381ZM213.975 158V147.121H215.586L215.752 149.562C216.175 148.755 216.738 148.114 217.441 147.639C218.145 147.157 218.893 146.916 219.688 146.916C219.811 146.916 219.886 146.923 219.912 146.936L219.854 148.957C219.736 148.918 219.561 148.898 219.326 148.898C218.278 148.898 217.428 149.266 216.777 150.002C216.133 150.738 215.811 151.75 215.811 153.039V158H213.975ZM226.318 156.398L231.465 151.857C232.357 151.063 232.972 150.376 233.311 149.797C233.649 149.217 233.818 148.592 233.818 147.922C233.818 147.147 233.574 146.538 233.086 146.096C232.598 145.646 231.924 145.422 231.064 145.422C230.114 145.422 229.365 145.686 228.818 146.213C228.271 146.734 227.979 147.476 227.939 148.439L226.064 148.137C226.162 146.796 226.657 145.738 227.549 144.963C228.447 144.188 229.626 143.801 231.084 143.801C232.529 143.801 233.678 144.175 234.531 144.924C235.391 145.666 235.82 146.659 235.82 147.902C235.82 148.82 235.589 149.66 235.127 150.422C234.671 151.184 233.848 152.076 232.656 153.098L228.896 156.398H236.143V158H226.318V156.398ZM243.975 158.195C242.191 158.195 240.788 157.557 239.766 156.281C238.743 154.999 238.232 153.238 238.232 150.998C238.232 148.765 238.743 147.007 239.766 145.725C240.788 144.442 242.191 143.801 243.975 143.801C245.765 143.801 247.171 144.442 248.193 145.725C249.215 147.007 249.727 148.765 249.727 150.998C249.727 153.238 249.215 154.999 248.193 156.281C247.171 157.557 245.765 158.195 243.975 158.195ZM243.975 156.604C245.153 156.604 246.071 156.109 246.729 155.119C247.386 154.13 247.715 152.756 247.715 150.998C247.715 149.24 247.386 147.873 246.729 146.896C246.071 145.913 245.153 145.422 243.975 145.422C242.803 145.422 241.888 145.913 241.23 146.896C240.579 147.873 240.254 149.24 240.254 150.998C240.254 152.762 240.579 154.139 241.23 155.129C241.888 156.112 242.803 156.604 243.975 156.604ZM252.256 156.398L257.402 151.857C258.294 151.063 258.91 150.376 259.248 149.797C259.587 149.217 259.756 148.592 259.756 147.922C259.756 147.147 259.512 146.538 259.023 146.096C258.535 145.646 257.861 145.422 257.002 145.422C256.051 145.422 255.303 145.686 254.756 146.213C254.209 146.734 253.916 147.476 253.877 148.439L252.002 148.137C252.1 146.796 252.594 145.738 253.486 144.963C254.385 144.188 255.563 143.801 257.021 143.801C258.467 143.801 259.616 144.175 260.469 144.924C261.328 145.666 261.758 146.659 261.758 147.902C261.758 148.82 261.527 149.66 261.064 150.422C260.609 151.184 259.785 152.076 258.594 153.098L254.834 156.398H262.08V158H252.256V156.398ZM264.287 156.398L269.434 151.857C270.326 151.063 270.941 150.376 271.279 149.797C271.618 149.217 271.787 148.592 271.787 147.922C271.787 147.147 271.543 146.538 271.055 146.096C270.566 145.646 269.893 145.422 269.033 145.422C268.083 145.422 267.334 145.686 266.787 146.213C266.24 146.734 265.947 147.476 265.908 148.439L264.033 148.137C264.131 146.796 264.626 145.738 265.518 144.963C266.416 144.188 267.594 143.801 269.053 143.801C270.498 143.801 271.647 144.175 272.5 144.924C273.359 145.666 273.789 146.659 273.789 147.902C273.789 148.82 273.558 149.66 273.096 150.422C272.64 151.184 271.816 152.076 270.625 153.098L266.865 156.398H274.111V158H264.287V156.398Z" fill="white"/>
</svg>
