<svg width="50" height="50" viewBox="0 0 50 50" fill="none" xmlns="http://www.w3.org/2000/svg">
<path d="M18.75 18.3125V31.6875C18.75 32.6875 19.1875 33.4167 20.0625 33.875C20.9375 34.3333 21.7917 34.2917 22.625 33.75L33 27.125C33.7917 26.6667 34.1875 25.9583 34.1875 25C34.1875 24.0417 33.7917 23.3333 33 22.875L22.625 16.25C21.7917 15.7083 20.9375 15.6667 20.0625 16.125C19.1875 16.5833 18.75 17.3125 18.75 18.3125ZM25 50C21.5417 50 18.2917 49.3433 15.25 48.03C12.2083 46.7183 9.5625 44.9375 7.3125 42.6875C5.0625 40.4375 3.28167 37.7917 1.97 34.75C0.656667 31.7083 0 28.4583 0 25C0 21.5417 0.656667 18.2917 1.97 15.25C3.28167 12.2083 5.0625 9.5625 7.3125 7.3125C9.5625 5.0625 12.2083 3.28083 15.25 1.9675C18.2917 0.655833 21.5417 0 25 0C28.4583 0 31.7083 0.655833 34.75 1.9675C37.7917 3.28083 40.4375 5.0625 42.6875 7.3125C44.9375 9.5625 46.7183 12.2083 48.03 15.25C49.3433 18.2917 50 21.5417 50 25C50 28.4583 49.3433 31.7083 48.03 34.75C46.7183 37.7917 44.9375 40.4375 42.6875 42.6875C40.4375 44.9375 37.7917 46.7183 34.75 48.03C31.7083 49.3433 28.4583 50 25 50ZM25 45C30.5417 45 35.2608 43.0525 39.1575 39.1575C43.0525 35.2608 45 30.5417 45 25C45 19.4583 43.0525 14.7392 39.1575 10.8425C35.2608 6.9475 30.5417 5 25 5C19.4583 5 14.74 6.9475 10.845 10.8425C6.94833 14.7392 5 19.4583 5 25C5 30.5417 6.94833 35.2608 10.845 39.1575C14.74 43.0525 19.4583 45 25 45Z" fill="white" fill-opacity="0.9"/>
</svg>
